<svg width="131" height="34" viewBox="0 0 131 34" fill="none" xmlns="http://www.w3.org/2000/svg">
<rect width="131" height="34" rx="4" fill="url(#paint0_linear)"/>
<path d="M28.91 19.32V11.2H30.814V18.662L31.528 19.376H34.272L34.986 18.662V11.2H36.89V19.32L35.21 21H30.59L28.91 19.32ZM40.0427 14.028H41.7507V15.05L42.7727 14.028H45.4887L46.9307 15.484V19.544L45.4887 21H42.7867L41.8907 20.258V23.968H40.0427V14.028ZM44.5927 19.432L45.0827 18.942V16.086L44.5927 15.596H43.0107L41.8907 16.73V18.438L42.9967 19.432H44.5927ZM48.8879 14.028H50.8059L52.4299 18.886H52.4859L54.1099 14.028H56.0279L53.3539 21H51.5619L48.8879 14.028ZM57.9879 19.544V15.484L59.4299 14.028H63.4339L64.8759 15.484V19.544L63.4339 21H59.4299L57.9879 19.544ZM62.5379 19.46L63.0279 18.97V16.058L62.5379 15.568H60.3259L59.8359 16.058V18.97L60.3259 19.46H62.5379ZM68.238 19.572V15.582H66.978V14.028H68.266V11.76H70.086V14.028H72.214V15.596H70.086V18.97L70.562 19.432H72.214V21H69.68L68.238 19.572ZM74.4598 19.572V15.484L75.9018 14.028H79.8358L81.2918 15.484V18.13H76.3078V19.026L76.7558 19.488H79.0378L79.4578 19.054V18.69H81.2778V19.6L79.8918 21H75.8738L74.4598 19.572ZM79.4438 16.842V16.03L78.9678 15.54H76.7838L76.3078 16.03V16.842H79.4438Z" fill="#E5ECF4"/>
<path d="M92.6406 15.125H90.6094C90.2728 15.125 90 15.4188 90 15.7812V22.3438C90 22.7062 90.2728 23 90.6094 23H92.6406C92.9772 23 93.25 22.7062 93.25 22.3438V15.7812C93.25 15.4188 92.9772 15.125 92.6406 15.125ZM91.625 21.9062C91.2884 21.9062 91.0156 21.6124 91.0156 21.25C91.0156 20.8876 91.2884 20.5938 91.625 20.5938C91.9616 20.5938 92.2344 20.8876 92.2344 21.25C92.2344 21.6124 91.9616 21.9062 91.625 21.9062ZM99.75 11.2272C99.75 12.387 99.0906 13.0376 98.9051 13.8125H101.488C102.336 13.8125 102.996 14.5712 103 15.4011C103.002 15.8916 102.808 16.4196 102.506 16.7463L102.504 16.7494C102.753 17.3875 102.713 18.2816 102.267 18.9223C102.488 19.6304 102.266 20.5002 101.851 20.9665C101.96 21.4477 101.908 21.8572 101.695 22.1869C101.177 22.9887 99.8926 23 98.8065 23L98.7342 23C97.5082 22.9995 96.5048 22.5188 95.6985 22.1325C95.2934 21.9384 94.7636 21.6981 94.3617 21.6901C94.1956 21.6868 94.0625 21.5409 94.0625 21.3621V15.5168C94.0625 15.4293 94.0951 15.3453 94.1528 15.2838C95.1587 14.2134 95.5912 13.0802 96.4156 12.1909C96.7915 11.7853 96.9282 11.1727 97.0603 10.5803C97.1732 10.0744 97.4094 9 97.9219 9C98.5313 9 99.75 9.21875 99.75 11.2272Z" fill="url(#paint1_linear)"/>
<defs>
<linearGradient id="paint0_linear" x1="-10.046" y1="17" x2="138.635" y2="17" gradientUnits="userSpaceOnUse">
<stop stop-color="#71C5FF"/>
<stop offset="1" stop-color="#0D8AB4" stop-opacity="0.83"/>
</linearGradient>
<linearGradient id="paint1_linear" x1="97.0909" y1="9" x2="97.0909" y2="31.1667" gradientUnits="userSpaceOnUse">
<stop stop-color="#E7E7E7"/>
<stop offset="1" stop-color="#B7FFE1" stop-opacity="0.37"/>
</linearGradient>
</defs>
</svg>
